<svg width="24" height="24" viewBox="0 0 24 24" fill="none" xmlns="http://www.w3.org/2000/svg">
<path d="M11.3567 6.46133L11.9847 7.44671L12.619 6.46541C14.1573 4.08584 16.3412 3.44809 18.0716 3.91217C19.8059 4.37731 21.25 5.98804 21.25 8.49807C21.25 9.70393 20.7113 11.0469 19.8078 12.4308C18.9114 13.8037 17.703 15.1457 16.4735 16.3334C15.247 17.5182 14.0175 18.5322 13.093 19.2509C12.6371 19.6053 12.2568 19.8868 11.9896 20.0803C11.7231 19.8868 11.3439 19.6055 10.8893 19.2514C9.9669 18.5327 8.74008 17.5187 7.51624 16.334C6.2894 15.1463 5.08364 13.8044 4.18922 12.4314C3.28771 11.0476 2.75 9.70441 2.75 8.49811C2.75 5.95059 4.20223 4.3431 5.93263 3.88649C7.66207 3.43013 9.8409 4.08285 11.3567 6.46133Z" stroke="#333333" stroke-width="1.5"/>
</svg>
