<svg width="24" height="24" viewBox="0 0 24 24" fill="none" xmlns="http://www.w3.org/2000/svg">
<path d="M12.4761 3C13.5453 3.00177 14.0871 3.00742 14.5553 3.02136L14.7397 3.02739C14.9527 3.03496 15.1628 3.04446 15.4162 3.05634C16.4271 3.10304 17.1167 3.26297 17.7224 3.4981C18.3486 3.73956 18.8774 4.06575 19.4055 4.5938C19.9327 5.12186 20.259 5.6523 20.5012 6.27695C20.7355 6.88179 20.8955 7.57215 20.943 8.58315C20.9543 8.83649 20.9634 9.04663 20.9709 9.25968L20.9769 9.44406C20.9908 9.91219 20.9972 10.4541 20.9991 11.5232L20.9999 12.2317C21 12.3182 21 12.4075 21 12.4997L20.9999 12.7677L20.9993 13.4761C20.9975 14.5453 20.9919 15.0871 20.978 15.5553L20.9719 15.7397C20.9644 15.9527 20.9549 16.1628 20.943 16.4162C20.8963 17.4271 20.7355 18.1167 20.5012 18.7224C20.2597 19.3486 19.9327 19.8774 19.4055 20.4055C18.8774 20.9327 18.3462 21.259 17.7224 21.5012C17.1167 21.7355 16.4271 21.8955 15.4162 21.943C15.1628 21.9543 14.9527 21.9634 14.7397 21.9709L14.5553 21.9769C14.0871 21.9908 13.5453 21.9972 12.4761 21.9991L11.7677 21.9999C11.6811 22 11.5918 22 11.4997 22L11.2317 21.9999L10.5232 21.9993C9.45407 21.9975 8.91219 21.9919 8.44406 21.978L8.25968 21.9719C8.04663 21.9644 7.83649 21.9549 7.58315 21.943C6.57215 21.8963 5.88338 21.7355 5.27695 21.5012C4.6515 21.2597 4.12186 20.9327 3.5938 20.4055C3.06575 19.8774 2.74036 19.3462 2.4981 18.7224C2.26297 18.1167 2.10384 17.4271 2.05634 16.4162C2.04505 16.1628 2.03584 15.9527 2.02839 15.7397L2.02241 15.5553C2.00851 15.0871 2.00218 14.5453 2.00012 13.4761L2 11.5232C2.00177 10.4541 2.00742 9.91219 2.02136 9.44406L2.02739 9.25968C2.03496 9.04663 2.04446 8.83649 2.05634 8.58315C2.10304 7.57137 2.26297 6.88259 2.4981 6.27695C2.73956 5.6515 3.06575 5.12186 3.5938 4.5938C4.12186 4.06575 4.6523 3.74036 5.27695 3.4981C5.88259 3.26297 6.57137 3.10384 7.58315 3.05634C7.83649 3.04505 8.04663 3.03584 8.25968 3.02839L8.44406 3.02241C8.91219 3.00851 9.45407 3.00218 10.5232 3.00012L12.4761 3ZM11.4997 7.7495C8.87481 7.7495 6.7495 9.87712 6.7495 12.4997C6.7495 15.1245 8.87712 17.2498 11.4997 17.2498C14.1245 17.2498 16.2498 15.1221 16.2498 12.4997C16.2498 9.87481 14.1221 7.7495 11.4997 7.7495ZM11.4997 9.64956C13.0738 9.64956 14.3498 10.9251 14.3498 12.4997C14.3498 14.0738 13.0742 15.3498 11.4997 15.3498C9.92557 15.3498 8.64956 14.0742 8.64956 12.4997C8.64956 10.9256 9.92509 9.64956 11.4997 9.64956ZM16.4873 6.32445C15.8325 6.32445 15.2998 6.85637 15.2998 7.51118C15.2998 8.16598 15.8317 8.69873 16.4873 8.69873C17.1421 8.69873 17.6749 8.16681 17.6749 7.51118C17.6749 6.85637 17.1413 6.32362 16.4873 6.32445Z" fill="#333333"/>
</svg>
