<svg width="24" height="24" viewBox="0 0 24 24" fill="none" xmlns="http://www.w3.org/2000/svg">
<g clip-path="url(#clip0_703_351)">
<path d="M12 2C6.47699 2 2 6.04812 2 11.0377C2 14.2176 3.08787 16.5398 5.83891 18.1611V22.3661C5.83891 22.9414 6.17364 23.0565 6.65481 22.7636L10.3577 19.9707C10.8912 20.0544 11.4456 20.0962 12 20.0962C17.523 20.0962 22 16.0481 22 11.0481C22 6.04812 17.523 2 12 2ZM11.9163 12.1674C11.8326 12.9205 11.5293 13.5586 11.0272 14.0711C10.4205 14.6883 9.6046 15.0021 8.58996 15.0021C7.72176 15.0021 6.96862 14.7406 6.37239 14.2385C5.59833 13.569 5.20084 12.5439 5.20084 11.1841C5.20084 10.1485 5.49372 9.28033 6.0795 8.61088C6.71757 7.8682 7.60669 7.50209 8.71548 7.50209C9.66736 7.50209 10.4205 7.75314 10.954 8.23431C11.4874 8.71548 11.7803 9.28033 11.8431 9.89749L11.864 10.1381H10.4728L10.431 9.96025C10.3368 9.57322 10.159 9.28034 9.88703 9.05021C9.62552 8.83054 9.22803 8.72594 8.72594 8.72594C8.10879 8.72594 7.61716 8.92469 7.24059 9.3431C6.85356 9.76151 6.66527 10.431 6.66527 11.3305C6.66527 12.0628 6.8431 12.659 7.18828 13.1088C7.52301 13.5377 8.0251 13.7469 8.70502 13.7469C9.32218 13.7469 9.78243 13.5272 10.0962 13.0774C10.2741 12.8264 10.41 12.5021 10.4937 12.0941L10.5356 11.9163H11.9372L11.9059 12.1674H11.9163ZM17.9414 14.8243H16.6444V11.5188C16.6444 11.1213 16.5816 10.9331 16.5397 10.8389C16.4351 10.6506 16.2259 10.5565 15.9017 10.5565C15.6088 10.5565 15.3577 10.6506 15.1172 10.8494C14.8975 11.0377 14.7824 11.4247 14.7824 12V14.8138H13.5167V7.64854H14.7824V9.79289C14.8452 9.74059 14.8975 9.69875 14.9603 9.6569C15.2636 9.45816 15.6297 9.36402 16.069 9.36402C16.864 9.36402 17.4184 9.6569 17.7113 10.2322C17.8682 10.5356 17.9414 10.9435 17.9414 11.4561V14.8138V14.8243Z" fill="#333333"/>
</g>
<defs>
<clipPath id="clip0_703_351">
<rect width="24" height="24" fill="white"/>
</clipPath>
</defs>
</svg>
