<svg width="24" height="24" viewBox="0 0 24 24" fill="none" xmlns="http://www.w3.org/2000/svg">
<path fill-rule="evenodd" clip-rule="evenodd" d="M16.4961 10C16.4961 13.5899 13.5859 16.5 9.99609 16.5C6.40624 16.5 3.49609 13.5899 3.49609 10C3.49609 6.41015 6.40624 3.5 9.99609 3.5C13.5859 3.5 16.4961 6.41015 16.4961 10ZM15.3688 15.9275C13.9488 17.2153 12.0641 18 9.99609 18C5.57782 18 1.99609 14.4183 1.99609 10C1.99609 5.58172 5.57782 2 9.99609 2C14.4144 2 17.9961 5.58172 17.9961 10C17.9961 11.8097 17.3952 13.4791 16.382 14.8194L21.8044 20.2418L20.7438 21.3025L15.3688 15.9275Z" fill="#333333"/>
</svg>
