<svg width="24" height="24" viewBox="0 0 24 24" fill="none" xmlns="http://www.w3.org/2000/svg">
<path fill-rule="evenodd" clip-rule="evenodd" d="M12 11.5682C14.1087 11.5682 15.8182 9.85872 15.8182 7.75C15.8182 5.64128 14.1087 3.93182 12 3.93182C9.89128 3.93182 8.18182 5.64128 8.18182 7.75C8.18182 9.85872 9.89128 11.5682 12 11.5682ZM12 13C14.8995 13 17.25 10.6495 17.25 7.75C17.25 4.8505 14.8995 2.5 12 2.5C9.1005 2.5 6.75 4.8505 6.75 7.75C6.75 10.6495 9.1005 13 12 13Z" fill="#333333"/>
<path fill-rule="evenodd" clip-rule="evenodd" d="M3.25 14.75H20.75V21.5H19.25V16.25H4.75V21.5H3.25V14.75Z" fill="#333333"/>
</svg>
